<svg version="1.1" id="Layer_1" xmlns="http://www.w3.org/2000/svg" xmlns:xlink="http://www.w3.org/1999/xlink" x="0px" y="0px"
	 width="100%" viewBox="0 0 543 529" enable-background="new 0 0 543 529" xml:space="preserve">
<path fill="#FFFEFE" opacity="1.000000" stroke="none" 
	d="
M544.000000,259.000000 
	C544.000000,349.645660 544.000000,439.791290 544.000000,529.968506 
	C363.063232,529.968506 182.126465,529.968506 1.094843,529.968506 
	C1.094843,353.771057 1.094843,177.542053 1.094843,1.156518 
	C181.999893,1.156518 362.999939,1.156518 544.000000,1.156518 
	C544.000000,86.873489 544.000000,172.686752 544.000000,259.000000 
M24.878727,337.454498 
	C33.836269,364.723328 45.840042,390.430084 62.832268,413.750793 
	C74.800613,430.176605 88.430038,445.059814 103.969131,457.993256 
	C121.588890,472.658386 140.867935,485.015411 161.990128,494.154968 
	C173.149231,498.983490 184.327652,504.084686 195.969177,507.412079 
	C217.364319,513.527283 239.144135,517.549805 261.696503,516.829163 
	C280.715576,516.221313 299.861115,517.571655 318.614075,513.508362 
	C345.753052,507.628052 371.655304,498.179474 395.901917,484.548676 
	C415.553192,473.501312 433.683014,460.275726 449.551178,444.228088 
	C457.331482,436.359741 464.928253,428.140045 471.432617,419.222015 
	C479.972473,407.513062 488.072235,395.351532 495.013123,382.648041 
	C501.000031,371.690613 505.553497,359.871429 509.933014,348.131927 
	C517.372437,328.190216 522.294556,307.600006 522.814697,286.195587 
	C523.089966,274.870361 523.262634,263.514862 522.750488,252.206131 
	C522.244690,241.038940 521.756348,229.728577 519.605774,218.806839 
	C514.582825,193.297821 505.509125,168.998367 492.930054,146.311096 
	C479.581024,122.235222 462.730469,100.804634 442.136566,82.136200 
	C421.107483,63.073265 397.499542,48.431133 371.869141,36.827072 
	C362.310974,32.499657 352.371063,28.840719 342.325012,25.803993 
	C324.546600,20.429937 306.244263,16.965446 287.745880,15.864495 
	C264.921692,14.506089 241.978790,15.248838 219.536453,19.974670 
	C191.226547,25.936081 164.423950,36.171963 139.303436,50.767410 
	C112.549278,66.312019 89.144768,85.817482 70.128334,110.136208 
	C60.502171,122.446411 51.904461,135.726151 44.243732,149.355560 
	C38.129578,160.233383 33.930405,172.220734 29.248564,183.863312 
	C20.520887,205.566879 16.144808,228.371597 15.119875,251.564621 
	C14.413553,267.547821 15.380637,283.728882 17.115698,299.656403 
	C18.472984,312.116058 22.158134,324.322174 24.878727,337.454498 
z"/>
<path fill="#FF0202" opacity="1.000000" stroke="none" 
	d="
M24.843849,337.047729 
	C22.158134,324.322174 18.472984,312.116058 17.115698,299.656403 
	C15.380637,283.728882 14.413553,267.547821 15.119875,251.564621 
	C16.144808,228.371597 20.520887,205.566879 29.248564,183.863312 
	C33.930405,172.220734 38.129578,160.233383 44.243732,149.355560 
	C51.904461,135.726151 60.502171,122.446411 70.128334,110.136208 
	C89.144768,85.817482 112.549278,66.312019 139.303436,50.767410 
	C164.423950,36.171963 191.226547,25.936081 219.536453,19.974670 
	C241.978790,15.248838 264.921692,14.506089 287.745880,15.864495 
	C306.244263,16.965446 324.546600,20.429937 342.325012,25.803993 
	C352.371063,28.840719 362.310974,32.499657 371.869141,36.827072 
	C397.499542,48.431133 421.107483,63.073265 442.136566,82.136200 
	C462.730469,100.804634 479.581024,122.235222 492.930054,146.311096 
	C505.509125,168.998367 514.582825,193.297821 519.605774,218.806839 
	C521.756348,229.728577 522.244690,241.038940 522.750488,252.206131 
	C523.262634,263.514862 523.089966,274.870361 522.814697,286.195587 
	C522.294556,307.600006 517.372437,328.190216 509.933014,348.131927 
	C505.553497,359.871429 501.000031,371.690613 495.013123,382.648041 
	C488.072235,395.351532 479.972473,407.513062 471.432617,419.222015 
	C464.928253,428.140045 457.331482,436.359741 449.551178,444.228088 
	C433.683014,460.275726 415.553192,473.501312 395.901917,484.548676 
	C371.655304,498.179474 345.753052,507.628052 318.614075,513.508362 
	C299.861115,517.571655 280.715576,516.221313 261.696503,516.829163 
	C239.144135,517.549805 217.364319,513.527283 195.969177,507.412079 
	C184.327652,504.084686 173.149231,498.983490 161.990128,494.154968 
	C140.867935,485.015411 121.588890,472.658386 103.969131,457.993256 
	C88.430038,445.059814 74.800613,430.176605 62.832268,413.750793 
	C45.840042,390.430084 33.836269,364.723328 24.843849,337.047729 
M197.027481,467.252533 
	C215.557526,474.377289 234.823532,478.254852 254.558029,479.565002 
	C263.730438,480.173920 273.000671,480.084991 282.183075,479.556641 
	C292.183929,478.981171 302.297485,478.320160 312.074554,476.303467 
	C336.211426,471.324799 358.917267,462.480804 380.295868,449.979370 
	C401.694580,437.466187 420.090149,421.468506 435.934937,402.719208 
	C449.186157,387.038910 459.968414,369.518372 467.828217,350.429688 
	C471.205902,342.226471 474.540619,333.898956 476.703705,325.327332 
	C479.944458,312.485168 482.575348,299.446411 484.608582,286.358124 
	C485.845947,278.392853 486.143921,270.137421 485.664734,262.083679 
	C484.953400,250.129379 483.565521,238.178497 481.730774,226.340042 
	C480.361908,217.507568 477.831055,208.855194 475.817657,200.122620 
	C470.295502,209.503342 466.228546,218.886520 461.747375,228.067566 
	C460.667969,230.279083 458.302979,233.307098 456.381073,233.419144 
	C446.915985,233.971008 437.397888,233.811005 427.905182,233.600708 
	C423.720551,233.508011 422.059509,230.344208 423.525513,226.245193 
	C423.889862,225.226532 424.195404,224.186844 424.683685,222.674622 
	C417.222534,222.674622 410.241486,222.631622 403.261230,222.688141 
	C397.613831,222.733871 390.924255,221.086990 386.634003,223.556351 
	C382.859833,225.728638 381.771088,232.566116 379.493561,237.341965 
	C379.422302,237.491409 379.305847,237.619247 379.233582,237.768341 
	C368.818298,259.264771 358.390656,280.755249 348.017670,302.272064 
	C347.121887,304.130157 346.588470,306.162933 345.687378,308.668976 
	C359.952118,308.668976 373.571106,308.561890 387.186249,308.744568 
	C390.572815,308.790009 392.228180,307.923187 393.074982,304.436157 
	C393.960754,300.788818 395.330811,297.073822 397.356445,293.950897 
	C398.808472,291.712402 401.586060,289.097198 403.949524,288.912018 
	C411.898315,288.289246 419.939423,288.400482 427.919769,288.774323 
	C433.703827,289.045258 436.000885,292.316986 434.242767,296.721802 
	C428.744476,310.497345 422.979126,324.171722 417.784393,338.059998 
	C416.028992,342.753082 413.191010,343.747253 408.770844,343.728363 
	C383.111816,343.618500 357.452026,343.674683 331.792511,343.674652 
	C320.295715,343.674622 308.798584,343.726227 297.302246,343.652985 
	C291.391907,343.615356 289.533691,340.550293 291.990326,335.252075 
	C293.730957,331.498138 295.506500,327.757263 297.119690,323.948425 
	C298.303314,321.153717 299.248962,318.258270 300.300690,315.407715 
	C298.702148,315.568756 297.802948,316.061310 297.265381,316.812622 
	C292.084320,324.053558 287.154968,331.485443 281.715454,338.524139 
	C279.986206,340.761810 277.004730,343.334564 274.495239,343.444336 
	C262.687805,343.960846 250.844864,343.728241 239.015381,343.648315 
	C234.151398,343.615448 230.995071,340.446014 230.872940,335.619446 
	C230.499191,320.850830 230.249161,306.078888 229.818619,291.312073 
	C229.705200,287.422089 229.113052,283.546051 228.688950,279.123566 
	C227.930115,279.977325 227.640198,280.184570 227.511230,280.465637 
	C218.542816,300.010376 209.673935,319.601868 200.498993,339.048981 
	C199.563049,341.032806 196.848022,343.385254 194.870850,343.467926 
	C184.392090,343.905975 173.885010,343.718048 163.388367,343.649231 
	C159.476196,343.623596 157.514755,341.406891 156.832428,337.588104 
	C154.385056,323.891144 151.837082,310.211823 149.264618,296.537598 
	C146.702728,282.919525 144.065674,269.315552 141.239792,254.546310 
	C137.733948,262.380096 134.648132,269.416595 131.447464,276.400452 
	C122.072495,296.856628 112.581146,317.259857 103.309021,337.762360 
	C101.468163,341.832855 99.332138,344.084076 94.383575,343.796295 
	C86.536064,343.339966 78.642563,343.674652 69.878265,343.674652 
	C73.668175,351.996155 76.571747,359.574951 80.438034,366.625854 
	C90.399391,384.792328 102.413971,401.575531 117.070534,416.255737 
	C128.145004,427.348083 140.070511,437.533112 153.494583,445.789490 
	C167.110016,454.163605 181.041580,461.905884 197.027481,467.252533 
M141.404739,92.772453 
	C126.813042,103.788986 113.721245,116.383194 102.327927,130.666672 
	C89.491615,146.759171 79.177605,164.340744 71.345558,183.438965 
	C65.080139,198.716980 60.521259,214.459381 58.055111,230.708679 
	C56.329258,242.080246 55.357086,253.631241 55.038258,265.129547 
	C54.806679,273.481262 55.743683,281.944275 56.966274,290.238800 
	C58.784531,302.574554 61.315048,314.805359 63.542446,327.080811 
	C65.546440,325.939758 66.241028,324.858643 66.775719,323.703522 
	C74.914871,306.120544 83.040802,288.531464 91.152817,270.935944 
	C95.034058,262.517303 98.882973,254.083710 102.740768,245.654251 
	C111.350044,226.842606 119.823456,207.966080 128.742844,189.302673 
	C129.770538,187.152252 133.216049,184.994110 135.639389,184.876541 
	C145.778976,184.384659 155.959198,184.526611 166.118393,184.735321 
	C170.601334,184.827408 173.916077,187.034988 174.809311,191.847000 
	C175.825226,197.319962 176.863861,202.789017 177.834625,208.270020 
	C181.591415,229.480835 185.325089,250.695740 189.331070,273.403900 
	C192.492615,267.170441 195.124176,262.269348 197.500443,257.247437 
	C208.204803,234.625107 218.764359,211.933609 229.637115,189.392944 
	C230.476501,187.652817 233.290009,185.928467 235.263657,185.834839 
	C243.575668,185.440521 251.917755,185.607635 260.247711,185.687668 
	C266.655823,185.749237 269.711823,188.727142 269.851257,194.970901 
	C270.218414,211.405365 270.506927,227.841583 270.869904,244.276154 
	C271.173981,258.046234 271.535675,271.815125 271.891785,285.583984 
	C271.902588,286.003204 272.134888,286.416656 272.266388,286.840820 
	C272.731049,286.684845 273.128937,286.679169 273.263062,286.488220 
	C295.452911,254.894791 317.746979,223.373154 339.690918,191.609619 
	C344.044952,185.307205 348.691132,182.358627 356.745911,182.465164 
	C392.228546,182.934494 427.720917,182.667847 463.209778,182.667847 
	C464.972290,182.667847 466.734802,182.667847 470.376953,182.667847 
	C462.163300,168.428360 455.194183,155.186310 447.126007,142.651642 
	C436.960968,126.859207 423.875977,113.440277 409.717133,101.170387 
	C403.646851,95.909966 397.180786,91.010376 390.453064,86.624008 
	C375.397369,76.807938 359.524445,68.519196 342.505432,62.526062 
	C323.816528,55.944881 304.642609,51.685959 284.844910,50.754669 
	C275.154327,50.298824 265.397827,50.227539 255.720139,50.804157 
	C246.395905,51.359718 236.962128,52.223148 227.888596,54.308987 
	C215.936264,57.056610 204.076508,60.550335 192.558914,64.766708 
	C174.380493,71.421486 157.509613,80.733223 141.404739,92.772453 
z"/>
<path fill="#FFFEFE" opacity="1.000000" stroke="none" 
	d="
M196.683319,467.059021 
	C181.041580,461.905884 167.110016,454.163605 153.494583,445.789490 
	C140.070511,437.533112 128.145004,427.348083 117.070534,416.255737 
	C102.413971,401.575531 90.399391,384.792328 80.438034,366.625854 
	C76.571747,359.574951 73.668175,351.996155 69.878265,343.674652 
	C78.642563,343.674652 86.536064,343.339966 94.383575,343.796295 
	C99.332138,344.084076 101.468163,341.832855 103.309021,337.762360 
	C112.581146,317.259857 122.072495,296.856628 131.447464,276.400452 
	C134.648132,269.416595 137.733948,262.380096 141.239792,254.546310 
	C144.065674,269.315552 146.702728,282.919525 149.264618,296.537598 
	C151.837082,310.211823 154.385056,323.891144 156.832428,337.588104 
	C157.514755,341.406891 159.476196,343.623596 163.388367,343.649231 
	C173.885010,343.718048 184.392090,343.905975 194.870850,343.467926 
	C196.848022,343.385254 199.563049,341.032806 200.498993,339.048981 
	C209.673935,319.601868 218.542816,300.010376 227.511230,280.465637 
	C227.640198,280.184570 227.930115,279.977325 228.688950,279.123566 
	C229.113052,283.546051 229.705200,287.422089 229.818619,291.312073 
	C230.249161,306.078888 230.499191,320.850830 230.872940,335.619446 
	C230.995071,340.446014 234.151398,343.615448 239.015381,343.648315 
	C250.844864,343.728241 262.687805,343.960846 274.495239,343.444336 
	C277.004730,343.334564 279.986206,340.761810 281.715454,338.524139 
	C287.154968,331.485443 292.084320,324.053558 297.265381,316.812622 
	C297.802948,316.061310 298.702148,315.568756 300.300690,315.407715 
	C299.248962,318.258270 298.303314,321.153717 297.119690,323.948425 
	C295.506500,327.757263 293.730957,331.498138 291.990326,335.252075 
	C289.533691,340.550293 291.391907,343.615356 297.302246,343.652985 
	C308.798584,343.726227 320.295715,343.674622 331.792511,343.674652 
	C357.452026,343.674683 383.111816,343.618500 408.770844,343.728363 
	C413.191010,343.747253 416.028992,342.753082 417.784393,338.059998 
	C422.979126,324.171722 428.744476,310.497345 434.242767,296.721802 
	C436.000885,292.316986 433.703827,289.045258 427.919769,288.774323 
	C419.939423,288.400482 411.898315,288.289246 403.949524,288.912018 
	C401.586060,289.097198 398.808472,291.712402 397.356445,293.950897 
	C395.330811,297.073822 393.960754,300.788818 393.074982,304.436157 
	C392.228180,307.923187 390.572815,308.790009 387.186249,308.744568 
	C373.571106,308.561890 359.952118,308.668976 345.687378,308.668976 
	C346.588470,306.162933 347.121887,304.130157 348.017670,302.272064 
	C358.390656,280.755249 368.818298,259.264771 379.233582,237.768341 
	C379.305847,237.619247 379.422302,237.491409 379.493561,237.341965 
	C381.771088,232.566116 382.859833,225.728638 386.634003,223.556351 
	C390.924255,221.086990 397.613831,222.733871 403.261230,222.688141 
	C410.241486,222.631622 417.222534,222.674622 424.683685,222.674622 
	C424.195404,224.186844 423.889862,225.226532 423.525513,226.245193 
	C422.059509,230.344208 423.720551,233.508011 427.905182,233.600708 
	C437.397888,233.811005 446.915985,233.971008 456.381073,233.419144 
	C458.302979,233.307098 460.667969,230.279083 461.747375,228.067566 
	C466.228546,218.886520 470.295502,209.503342 475.817657,200.122620 
	C477.831055,208.855194 480.361908,217.507568 481.730774,226.340042 
	C483.565521,238.178497 484.953400,250.129379 485.664734,262.083679 
	C486.143921,270.137421 485.845947,278.392853 484.608582,286.358124 
	C482.575348,299.446411 479.944458,312.485168 476.703705,325.327332 
	C474.540619,333.898956 471.205902,342.226471 467.828217,350.429688 
	C459.968414,369.518372 449.186157,387.038910 435.934937,402.719208 
	C420.090149,421.468506 401.694580,437.466187 380.295868,449.979370 
	C358.917267,462.480804 336.211426,471.324799 312.074554,476.303467 
	C302.297485,478.320160 292.183929,478.981171 282.183075,479.556641 
	C273.000671,480.084991 263.730438,480.173920 254.558029,479.565002 
	C234.823532,478.254852 215.557526,474.377289 196.683319,467.059021 
z"/>
<path fill="#FFFEFE" opacity="1.000000" stroke="none" 
	d="
M141.744186,92.652390 
	C157.509613,80.733223 174.380493,71.421486 192.558914,64.766708 
	C204.076508,60.550335 215.936264,57.056610 227.888596,54.308987 
	C236.962128,52.223148 246.395905,51.359718 255.720139,50.804157 
	C265.397827,50.227539 275.154327,50.298824 284.844910,50.754669 
	C304.642609,51.685959 323.816528,55.944881 342.505432,62.526062 
	C359.524445,68.519196 375.397369,76.807938 390.453064,86.624008 
	C397.180786,91.010376 403.646851,95.909966 409.717133,101.170387 
	C423.875977,113.440277 436.960968,126.859207 447.126007,142.651642 
	C455.194183,155.186310 462.163300,168.428360 470.376953,182.667847 
	C466.734802,182.667847 464.972290,182.667847 463.209778,182.667847 
	C427.720917,182.667847 392.228546,182.934494 356.745911,182.465164 
	C348.691132,182.358627 344.044952,185.307205 339.690918,191.609619 
	C317.746979,223.373154 295.452911,254.894791 273.263062,286.488220 
	C273.128937,286.679169 272.731049,286.684845 272.266388,286.840820 
	C272.134888,286.416656 271.902588,286.003204 271.891785,285.583984 
	C271.535675,271.815125 271.173981,258.046234 270.869904,244.276154 
	C270.506927,227.841583 270.218414,211.405365 269.851257,194.970901 
	C269.711823,188.727142 266.655823,185.749237 260.247711,185.687668 
	C251.917755,185.607635 243.575668,185.440521 235.263657,185.834839 
	C233.290009,185.928467 230.476501,187.652817 229.637115,189.392944 
	C218.764359,211.933609 208.204803,234.625107 197.500443,257.247437 
	C195.124176,262.269348 192.492615,267.170441 189.331070,273.403900 
	C185.325089,250.695740 181.591415,229.480835 177.834625,208.270020 
	C176.863861,202.789017 175.825226,197.319962 174.809311,191.847000 
	C173.916077,187.034988 170.601334,184.827408 166.118393,184.735321 
	C155.959198,184.526611 145.778976,184.384659 135.639389,184.876541 
	C133.216049,184.994110 129.770538,187.152252 128.742844,189.302673 
	C119.823456,207.966080 111.350044,226.842606 102.740768,245.654251 
	C98.882973,254.083710 95.034058,262.517303 91.152817,270.935944 
	C83.040802,288.531464 74.914871,306.120544 66.775719,323.703522 
	C66.241028,324.858643 65.546440,325.939758 63.542446,327.080811 
	C61.315048,314.805359 58.784531,302.574554 56.966274,290.238800 
	C55.743683,281.944275 54.806679,273.481262 55.038258,265.129547 
	C55.357086,253.631241 56.329258,242.080246 58.055111,230.708679 
	C60.521259,214.459381 65.080139,198.716980 71.345558,183.438965 
	C79.177605,164.340744 89.491615,146.759171 102.327927,130.666672 
	C113.721245,116.383194 126.813042,103.788986 141.744186,92.652390 
z"/>
</svg>